PathFileType	4	(X/Y/Z)	/Users/itak/Documents/Research/Walk-IL/dataset/trc/00564_00009.trc
DataRate	CameraRate	NumFrames	NumMarkers	Units	OrigDataRate	OrigDataStartFrame	OrigNumFrames
100.000000	100.000000	4	53	mm	100.000000	314	503
Frame#	Time	RPSI			LPSI			L3			STRN			T10			C7			CLAV			RBAK			LBAK			LSHO			LUPA			LAEL			LAOL			LWTS			LWPS			LFRA			LHPS			LHTS			RSHO			RUPA			RAEL			RAOL			RWTS			RWPS			RFRA			RIFD			RHTS			RHPS			RBHD			LFHD			RFHD			LBHD			LHIP			RHIP			RASI			LASI			LKNE			LTHI			LANK			LTIP			LTOE			LMT1			LMT5			LHEE			RKNE			RTHI			RANK			RTIP			RTOE			RMT1			RMT5			RHEE			LIFD			
		X1	Y1	Z1	X2	Y2	Z2	X3	Y3	Z3	X4	Y4	Z4	X5	Y5	Z5	X6	Y6	Z6	X7	Y7	Z7	X8	Y8	Z8	X9	Y9	Z9	X10	Y10	Z10	X11	Y11	Z11	X12	Y12	Z12	X13	Y13	Z13	X14	Y14	Z14	X15	Y15	Z15	X16	Y16	Z16	X17	Y17	Z17	X18	Y18	Z18	X19	Y19	Z19	X20	Y20	Z20	X21	Y21	Z21	X22	Y22	Z22	X23	Y23	Z23	X24	Y24	Z24	X25	Y25	Z25	X26	Y26	Z26	X27	Y27	Z27	X28	Y28	Z28	X29	Y29	Z29	X30	Y30	Z30	X31	Y31	Z31	X32	Y32	Z32	X33	Y33	Z33	X34	Y34	Z34	X35	Y35	Z35	X36	Y36	Z36	X37	Y37	Z37	X38	Y38	Z38	X39	Y39	Z39	X40	Y40	Z40	X41	Y41	Z41	X42	Y42	Z42	X43	Y43	Z43	X44	Y44	Z44	X45	Y45	Z45	X46	Y46	Z46	X47	Y47	Z47	X48	Y48	Z48	X49	Y49	Z49	X50	Y50	Z50	X51	Y51	Z51	X52	Y52	Z52	X53	Y53	Z53	

315	3.14	240.7600555419922	1009.085815429688	336.2142944335938	368.9004516601562	1009.440795898438	298.52783203125	307.3545837402344	1107.983764648438	325.4806823730469	380.0877380371094	1287.76318359375	552.3936767578125	301.9058837890625	1234.059936523438	323.5211486816406	295.1719970703125	1505.683959960938	385.5806579589844	370.2575073242188	1399.075317382812	539.05029296875	192.67822265625	1379.290649414062	345.6121826171875	369.0812072753906	1457.513305664062	317.9089050292969	482.2071228027344	1481.087036132812	378.8561401367188	552.9898681640625	1355.830688476562	335.3865356445312	589.1447143554688	1137.746337890625	337.2232055664062	505.5690612792969	1124.982055664062	281.7112731933594	597.7883911132812	902.1779174804688	450.8192443847656	645.2391967773438	878.49755859375	381.2035217285156	609.5626220703125	1053.793823242188	357.660400390625	645.4363403320312	819.2431030273438	395.0207214355469	628.1710205078125	826.7119140625	460.6830139160156	173.2461853027344	1460.877197265625	494.6187744140625	104.3427963256836	1395.528930664062	501.6131286621094	58.81515121459961	1108.474731445312	513.3990478515625	62.7908935546875	1087.202026367188	452.9636840820312	160.0792999267578	913.3392333984375	649.3115844726562	85.99851989746094	881.6998291015625	632.000732421875	58.38517379760742	1053.87353515625	530.3685302734375	180.1105346679688	745.2964477539062	682.8679809570312	164.3164215087891	828.5057983398438	694.7284545898438	100.8111953735352	811.9005737304688	658.593994140625	261.1289672851562	1684.37744140625	505.9159545898438	441.0790100097656	1685.182739257812	613.1578369140625	300.2257385253906	1677.434326171875	641.9207763671875	426.3053894042969	1690.07177734375	480.3897399902344	530.8272094726562	934.8995361328125	387.3397521972656	161.1152038574219	937.79296875	489.861083984375	241.0502319335938	971.5703125	557.2880249023438	500.7693786621094	960.2367553710938	470.4202575683594	546.2259521484375	501.5132751464844	520.1155395507812	557.0062255859375	667.52734375	474.7661743164062	482.3756103515625	102.3364028930664	239.7732391357422	514.0123291015625	302.3168334960938	358.4397583007812	524.6376342773438	46.14352798461914	440.374267578125	462.9612731933594	62.99641036987305	397.3474426269531	547.7276611328125	63.80557632446289	333.3544616699219	405.4751586914062	126.4197387695312	208.7705841064453	256.903076171875	498.825439453125	523.9779052734375	188.4411163330078	785.877197265625	533.3297729492188	306.2488403320312	38.36236953735352	434.5361938476562	283.9625549316406	357.3604736328125	520.548828125	376.2449645996094	43.91275024414062	649.721435546875	410.0592956542969	44.66255569458008	580.3426513671875	304.7122802734375	40.78377151489258	568.9291381835938	355.685302734375	33.91751098632812	374.975341796875	609.9669799804688	731.73779296875	453.0696411132812	
316	3.15	243.2840728759766	1009.388549804688	341.4059753417969	371.7285461425781	1009.789672851562	304.4756774902344	309.6387329101562	1108.390258789062	331.1474609375	381.4763488769531	1287.950317382812	558.8165283203125	304.0882873535156	1234.457153320312	329.5416564941406	297.1214294433594	1505.938110351562	391.9759826660156	371.7763977050781	1399.251586914062	545.544921875	194.6542205810547	1379.677368164062	351.6903381347656	371.2144775390625	1457.854614257812	324.4955139160156	484.1191101074219	1481.349365234375	385.8098449707031	555.234619140625	1356.300903320312	342.3814392089844	592.0328979492188	1138.35400390625	344.0504455566406	508.6772155761719	1125.364624023438	288.261474609375	601.052490234375	903.02197265625	458.0010986328125	648.65673828125	879.279296875	388.4587097167969	612.6189575195312	1054.50146484375	364.6607055664062	648.9789428710938	820.0433349609375	402.4174499511719	631.6314697265625	827.6407470703125	468.0419006347656	174.9156646728516	1461.171875	500.7354736328125	106.0276794433594	1395.8037109375	507.669921875	60.70694732666016	1108.762329101562	520.303466796875	64.70704650878906	1087.264038085938	459.9626159667969	162.2221832275391	914.4148559570312	657.0662841796875	88.23582458496094	882.5438232421875	639.8116455078125	60.25211334228516	1054.2734375	537.4716796875	182.5393524169922	746.5507202148438	691.3741455078125	166.6084442138672	829.7771606445312	702.8565673828125	103.1921844482422	812.8955078125	666.7047729492188	262.8281555175781	1684.546997070312	512.4796752929688	442.4412841796875	1685.206420898438	620.2042236328125	301.5105895996094	1677.5	648.5350952148438	428.046630859375	1690.247436523438	487.3691711425781	533.0736694335938	935.4346923828125	394.8762512207031	162.5315551757812	937.8182983398438	494.2141723632812	241.8651885986328	971.5547485351562	562.451904296875	502.7745971679688	961.4212646484375	478.3274536132812	546.8560180664062	503.7581176757812	534.0106811523438	558.513427734375	668.9473266601562	485.9131164550781	493.6596984863281	94.77968597412109	266.3060607910156	520.4393310546875	299.0068664550781	378.3569641113281	531.5115356445312	46.89548873901367	469.98876953125	470.8816833496094	61.10971069335938	424.76708984375	557.126953125	60.80347442626953	362.9892883300781	417.135986328125	116.494743347168	232.5531921386719	257.2981262207031	498.4717712402344	525.7662963867188	189.7990112304688	785.6575317382812	536.8735961914062	306.4241943359375	38.44592666625977	434.4740295410156	284.4211120605469	357.0554809570312	521.7037963867188	376.362548828125	43.82026290893555	649.7835693359375	410.0930786132812	44.58651351928711	580.3856811523438	304.7630615234375	40.79933166503906	568.96142578125	355.8163452148438	33.93155670166016	374.9443054199219	613.6026611328125	732.633056640625	460.5894165039062	
317	3.16	245.8144836425781	1009.638488769531	346.5934753417969	374.573974609375	1010.103881835938	310.4030151367188	311.9619140625	1108.765991210938	336.7415161132812	382.8844299316406	1288.1044921875	565.1939697265625	306.3014831542969	1234.829833984375	335.4832763671875	299.0874633789062	1506.163818359375	398.331787109375	373.3128356933594	1399.392944335938	552.0029296875	196.6491088867188	1380.034057617188	357.7180786132812	373.3596496582031	1458.16650390625	331.0553283691406	486.0414428710938	1481.584350585938	392.7428894042969	557.4855346679688	1356.73583984375	349.3644104003906	594.8966064453125	1138.935302734375	350.8974304199219	511.7663879394531	1125.717651367188	294.8193664550781	604.2526245117188	903.8281860351562	465.2026977539062	652.0587768554688	880.0516357421875	395.761474609375	615.6423950195312	1055.1796875	371.6828308105469	652.5191040039062	820.8373413085938	409.8296203613281	635.0169067382812	828.5223388671875	475.423583984375	176.609375	1461.418701171875	506.81005859375	107.7306060791016	1396.029541015625	513.6820678710938	62.6204719543457	1108.99755859375	527.0656127929688	66.62651824951172	1087.303100585938	466.8175964355469	164.3128662109375	915.340087890625	664.5643920898438	90.40715026855469	883.266845703125	647.3634643554688	62.08411026000977	1054.629150390625	544.4122924804688	184.8536071777344	747.6258544921875	699.5364990234375	168.8011169433594	830.8417358398438	710.6832275390625	105.477897644043	813.7535400390625	674.5167236328125	264.5426025390625	1684.6806640625	518.9879760742188	443.8023986816406	1685.185668945312	627.222412109375	302.7834167480469	1677.52880859375	655.111572265625	429.7994995117188	1690.374389648438	494.310791015625	535.373046875	935.9617309570312	402.3161315917969	163.9889678955078	937.8093872070312	498.5466918945312	242.7496948242188	971.5358276367188	567.611083984375	504.9031677246094	962.8023681640625	486.3860168457031	547.3740844726562	506.042236328125	547.5999755859375	559.9464721679688	670.4009399414062	496.9026184082031	504.631103515625	87.67101287841797	293.3007507324219	526.728759765625	295.9323120117188	398.3860778808594	537.5899047851562	47.876953125	499.6060485839844	478.0613708496094	59.45397567749023	452.18017578125	565.9218139648438	58.13368988037109	392.8907165527344	428.7125549316406	107.1141967773438	256.7867126464844	257.7387390136719	498.1267700195312	527.57666015625	191.2343139648438	785.41796875	540.410888671875	306.4981079101562	38.5670051574707	434.4054260253906	284.9352111816406	356.7486267089844	522.8519897460938	376.4930114746094	43.73558044433594	649.8495483398438	410.13720703125	44.51895523071289	580.429443359375	304.8005065917969	40.82421493530273	568.983154296875	355.9831848144531	33.91690444946289	374.9069213867188	617.206298828125	733.4840087890625	468.0777893066406	
318	3.17	248.3622741699219	1009.834716796875	351.7820739746094	377.4371643066406	1010.378479003906	316.3236389160156	314.335205078125	1109.10693359375	342.2855529785156	384.3110656738281	1288.230834960938	571.53564453125	308.5527038574219	1235.176513671875	341.3524780273438	301.0688781738281	1506.365112304688	404.65185546875	374.8635559082031	1399.502563476562	558.4321899414062	198.6667022705078	1380.357788085938	363.6966247558594	375.51806640625	1458.447631835938	337.593994140625	487.97998046875	1481.795776367188	399.6607055664062	559.7432861328125	1357.135009765625	356.3448181152344	597.732421875	1139.4873046875	357.7650146484375	514.8226928710938	1126.041381835938	301.3984375	607.3892822265625	904.589111328125	472.4145812988281	655.4351806640625	880.807373046875	403.0994873046875	618.6304931640625	1055.821533203125	378.7119445800781	656.0459594726562	821.6182861328125	417.2478332519531	638.3286743164062	829.3584594726562	482.8191223144531	178.3208770751953	1461.615112304688	512.8412475585938	109.4507751464844	1396.206298828125	519.641845703125	64.55250549316406	1109.175903320312	533.6806030273438	68.54686737060547	1087.31884765625	473.5227966308594	166.3553161621094	916.1090087890625	671.8045043945312	92.50974273681641	883.86669921875	654.657470703125	63.88288116455078	1054.936279296875	551.189453125	187.0619812011719	748.521728515625	707.3518676757812	170.9032440185547	831.7066040039062	718.2086791992188	107.6631317138672	814.4750366210938	682.0382080078125	266.2748413085938	1684.790649414062	525.447265625	445.1665344238281	1685.120727539062	634.2149047851562	304.0480346679688	1677.51904296875	661.6612548828125	431.5625610351562	1690.452880859375	501.2238159179688	537.724609375	936.4805297851562	409.6766052246094	165.4847412109375	937.7686767578125	502.87841796875	243.6994934082031	971.516845703125	572.7825927734375	507.0621948242188	964.2669067382812	494.4627380371094	547.8191528320312	508.3455810546875	560.844970703125	561.3204956054688	671.8805541992188	507.7176818847656	515.2203979492188	81.05844879150391	320.6834716796875	532.841796875	293.1140441894531	418.4924621582031	542.8945922851562	49.07200622558594	529.1543579101562	484.5150756835938	58.03899002075195	479.5393981933594	574.0819091796875	55.81137847900391	422.970947265625	440.1109619140625	98.33487701416016	281.4273376464844	258.2350769042969	497.7938842773438	529.392578125	192.7378082275391	785.1640625	543.9657592773438	306.5095520019531	38.70878601074219	434.3327941894531	285.5003662109375	356.4479370117188	523.9756469726562	376.6276550292969	43.65965270996094	649.916748046875	410.187255859375	44.4575309753418	580.47119140625	304.8257141113281	40.85712051391602	568.9937133789062	356.1718444824219	33.89308547973633	374.8729553222656	620.7783203125	734.281982421875	475.5364074707031	
